<svg width="20" height="20" viewBox="0 0 20 20" fill="none" xmlns="http://www.w3.org/2000/svg">
<path d="M19.1576 14.472C18.9789 14.252 18.6789 14.1707 18.4149 14.2653C17.6749 14.5307 16.8723 14.6667 16.0269 14.6667C11.9829 14.6667 8.69359 11.376 8.69359 7.33333C8.69359 4.9 9.89492 2.63467 11.9069 1.272C12.1349 1.11733 12.2443 0.838667 12.1829 0.570667C12.1216 0.302667 11.9016 0.1 11.6283 0.06C11.3163 0.0146667 11.0056 0 10.6936 0C5.17892 0 0.693584 4.48533 0.693584 10C0.693584 15.5147 5.17892 20 10.6936 20C14.1936 20 17.3776 18.2213 19.2083 15.2427C19.3563 15.0013 19.3349 14.6933 19.1576 14.472Z" fill="black"/>
</svg>
