<?xml version="1.0" encoding="utf-8"?>
<!-- Generator: Adobe Illustrator 14.0.0, SVG Export Plug-In . SVG Version: 6.00 Build 43363)  -->
<!DOCTYPE svg PUBLIC "-//W3C//DTD SVG 1.1//EN" "http://www.w3.org/Graphics/SVG/1.1/DTD/svg11.dtd">
<svg version="1.1" id="Слой_1" xmlns="http://www.w3.org/2000/svg" xmlns:xlink="http://www.w3.org/1999/xlink" x="0px" y="0px"
	 width="20px" height="20px" viewBox="0 0 20 20" enable-background="new 0 0 20 20" xml:space="preserve">
<path fill="#F8981F" d="M19.158,14.473c-0.179-0.221-0.479-0.302-0.743-0.207c-0.74,0.267-1.543,0.4-2.388,0.4
	c-4.044,0-7.334-3.29-7.334-7.333c0-2.434,1.202-4.699,3.214-6.062c0.228-0.155,0.337-0.433,0.276-0.701
	c-0.062-0.267-0.282-0.47-0.555-0.51C11.316,0.015,11.006,0,10.694,0C5.178,0,0.693,4.485,0.693,10c0,5.516,4.485,10,10.001,10
	c3.5,0,6.684-1.779,8.515-4.758C19.356,15.002,19.335,14.693,19.158,14.473z"/>
</svg>
